<?xml version="1.0" encoding="utf-8"?>
<!-- Generator: Adobe Illustrator 24.0.0, SVG Export Plug-In . SVG Version: 6.00 Build 0)  -->
<svg version="1.1" id="Layer_1" xmlns="http://www.w3.org/2000/svg" xmlns:xlink="http://www.w3.org/1999/xlink" x="0px" y="0px"
	 viewBox="0 0 351 353.8" style="enable-background:new 0 0 351 353.8;" xml:space="preserve">
<style type="text/css">
	.st0{display:none;}
	.st1{display:inline;fill:#9EA88F;}
	.st2{display:inline;}
	.st3{opacity:0.5;}
	.st4{fill:#FDFDFD;}
	.st5{opacity:0.2;fill:#C8C2B2;enable-background:new    ;}
	.st6{display:none;fill:#A8BC8F;enable-background:new    ;}
	.st7{font-family:'CooperBlack';}
	.st8{font-size:38.2233px;}
	.st9{fill:#8C9B7B;}
	.st10{display:inline;fill:#8C9B7B;}
	.st11{font-size:6.1784px;}
	.st12{display:inline;opacity:0.7;}
	.st13{display:inline;fill:#585857;}
	.st14{font-size:7.1986px;}
	.st15{fill:#A8BC8F;}
	.st16{opacity:0.7;}
	.st17{fill:#585857;}
	.st18{clip-path:url(#SVGID_2_);}
	.st19{opacity:0.5;fill:#C7D3C0;enable-background:new    ;}
	.st20{fill:#C7D3C0;}
	.st21{clip-path:url(#SVGID_4_);}
	.st22{clip-path:url(#SVGID_6_);}
</style>
<g id="BACKGROUND" class="st0">
	<rect x="-337.6" y="-73.1" class="st1" width="750" height="500"/>
</g>
<g id="OBJECTS">
	<g class="st0">
		<g class="st2">
			<g class="st3">
				
					<image style="overflow:visible;enable-background:new    ;" width="385" height="90" xlink:href="9CB27B4E.png"  transform="matrix(1 0 0 1 3.3622 316.9292)">
				</image>
			</g>
			<g class="st3">
				
					<image style="overflow:visible;enable-background:new    ;" width="390" height="90" xlink:href="9CB27B52.png"  transform="matrix(1 0 0 1 -313.6378 316.9292)">
				</image>
			</g>
		</g>
		<g class="st2">
			<g class="st3">
				
					<image style="overflow:visible;enable-background:new    ;" width="385" height="90" xlink:href="9CB27B55.png"  transform="matrix(1 0 0 1 3.3622 316.9292)">
				</image>
			</g>
			<g class="st3">
				
					<image style="overflow:visible;enable-background:new    ;" width="390" height="90" xlink:href="9CB27B56.png"  transform="matrix(1 0 0 1 -313.6378 316.9292)">
				</image>
			</g>
		</g>
	</g>
	<g>
		<line class="st4" x1="353" y1="0" x2="353" y2="353.8"/>
		<path class="st5" d="M351,0H90.8c2.4,16.9,13.1,32.8,28.7,40c19.3,8.9,41.8,4.9,62.2-0.8s41.3-13,62.3-10.3
			c16.4,2.1,31.3,10.2,46.3,17.1c15,6.9,31.5,12.8,47.8,10.2c4.4-0.7,8.8-2.2,12.8-4.4L351,0L351,0z"/>
		<path class="st5" d="M351,353.8V243.9c-4.6-1.5-9.5-2.1-14.3-1.1c-8.7,1.6-15.9,7.8-21.4,14.7s-9.7,14.8-15,21.8
			c-13.8,18.2-35.3,30.4-58,32.9c-14.6,1.6-29.7-0.7-43.9,3.2c-18,4.9-32.1,20.6-36.7,38.6L351,353.8L351,353.8z"/>
		<text transform="matrix(1 0 0 1 77.247 161.3638)" class="st6 st7 st8">nature is life</text>
		<g class="st0">
			<g class="st2">
				<path class="st9" d="M212.1,203.1h-29.3c-3.3,0-5.9-2.6-5.9-5.9s2.6-5.9,5.9-5.9h29.3c3.3,0,5.9,2.6,5.9,5.9
					S215.4,203.1,212.1,203.1z M182.8,191.7c-3,0-5.4,2.4-5.4,5.4s2.4,5.4,5.4,5.4h29.3c3,0,5.4-2.4,5.4-5.4s-2.4-5.4-5.4-5.4H182.8
					z"/>
			</g>
			<text transform="matrix(1 0 0 1 182.5184 199.7896)" class="st10 st7 st11">MORE INFO</text>
		</g>
		<g class="st0">
			<path class="st10" d="M191.6,209.6c-1.1,0-2,0.9-2,2s0.9,2,2,2s2-0.9,2-2C193.6,210.5,192.7,209.6,191.6,209.6z"/>
			<g class="st12">
				<path class="st9" d="M197.5,213.6c-1.1,0-2-0.9-2-2s0.9-2,2-2s2,0.9,2,2C199.5,212.7,198.6,213.6,197.5,213.6z M197.5,210.2
					c-0.8,0-1.4,0.6-1.4,1.4s0.6,1.4,1.4,1.4s1.4-0.6,1.4-1.4C198.9,210.8,198.2,210.2,197.5,210.2z"/>
			</g>
			<g class="st12">
				<path class="st9" d="M203.3,213.6c-1.1,0-2-0.9-2-2s0.9-2,2-2s2,0.9,2,2C205.3,212.7,204.4,213.6,203.3,213.6z M203.3,210.2
					c-0.8,0-1.4,0.6-1.4,1.4s0.6,1.4,1.4,1.4s1.4-0.6,1.4-1.4C204.7,210.8,204.1,210.2,203.3,210.2z"/>
			</g>
		</g>
		<g class="st0">
			<text transform="matrix(1 0 0 1 -9.3111 33.4683)" class="st13 st7 st14">HOME</text>
			<g class="st2">
				<rect x="-8.8" y="35.9" class="st15" width="19.9" height="0.7"/>
			</g>
		</g>
		<g class="st16">
			<path class="st17" d="M237.7,341.1c-1.2,0-1.2,2,0,2C238.9,343,238.9,341.1,237.7,341.1z"/>
			<path class="st17" d="M255.7,295c-1.2,0-1.2,2,0,2C256.9,297,256.9,295,255.7,295z"/>
			<path class="st17" d="M316.5,345.1c-1.2,0-1.2,2,0,2C317.6,347.1,317.6,345.1,316.5,345.1z"/>
			<path class="st17" d="M211.4,49.8c-1.2,0-1.2,2,0,2C212.6,51.7,212.6,49.8,211.4,49.8z"/>
			<path class="st17" d="M178.1,9c-1.2,0-1.2,2,0,2C179.3,10.9,179.3,9,178.1,9z"/>
			<path class="st17" d="M236,10.1c-1.2,0-1.2,2,0,2S237.2,10.1,236,10.1z"/>
			<path class="st17" d="M269.4,32.3c-1.2,0-1.2,2,0,2C270.6,34.2,270.6,32.3,269.4,32.3z"/>
			<path class="st17" d="M157.3,43.9c-1.2,0-1.2,2,0,2C158.5,45.9,158.5,43.9,157.3,43.9z"/>
		</g>
		<g>
			<g>
				<defs>
					<line id="SVGID_1_" x1="157.7" y1="82.9" x2="157.7" y2="353.8"/>
				</defs>
				<clipPath id="SVGID_2_">
					<use xlink:href="#SVGID_1_"  style="overflow:visible;"/>
				</clipPath>
				<g class="st18">
					<g>
						<path class="st9" d="M94.5,314.9"/>
						<path class="st9" d="M66.4,366.3"/>
						<path class="st17" d="M82.6,337.5c3.2-9.3,6.1-18.1,12.1-22.4l0,0l-0.1-0.1l-0.2-0.4 M52.3,371.2c0.9,0.2,1.8,0.3,2.7,0.3
							c3.7,0,7.5-1.6,11.5-4.9 M33.9,375.7l0.5,0.1 M88.3,318.4c-0.1,0.1-0.2,0.1-0.3,0.2 M88.3,319.1c0.6-0.4,1.1-0.8,1.7-1.1
							 M88.3,320 M49.7,363.4 M86.7,322.3c-1.5,2.4-2.6,5.2-3.8,8.2 M86,318.7 M83.5,330.7c1.7-4.4,3.2-8.2,6-11.2
							c0.3-0.3,0.5-0.5,0.7-0.7c-3.5,4.8-5.8,11.5-8.1,18.4 M66.2,366.1c-4.8,4-9.4,5.5-13.7,4.5c-5.7-1.3-9.4-6.8-10.6-9
							c1.3,0.8,4.1,2,7.8,2.3c0.5,0,1,0.1,1.5,0.1"/>
					</g>
					<path class="st19" d="M91.6,159.3c2.8-2.4,4.2-7,2-10.1c-1.8-2.6-5.4-2.6-9.5-0.2"/>
					<path class="st19" d="M85.1,188.5"/>
					<g>
						<path class="st20" d="M113.8,203.7c-1.9-1.9,3.7-10.9,14.5-13.8s10.7,7.8,4,10.9C125.6,203.9,116.8,206.6,113.8,203.7z"/>
						<path class="st20" d="M91.6,212.8c-2.6,0.4-6.6-9.5-2.6-19.8s12.6-4.1,11.2,3.2C98.7,203.4,95.7,212.1,91.6,212.8z"/>
						<path class="st20" d="M93.5,230c-1.2-2.4,6.8-9.3,18-8.8s7.9,10.6,0.6,11.6C104.7,233.8,95.4,233.7,93.5,230z"/>
						<path class="st20" d="M83.1,245.3c11-1.6,9.8,8.9,2.8,11.3"/>
						<path class="st17" d="M113.9,204.1c0.9,0.8,2.4,1.2,4.1,1.2c4,0,9.6-1.9,14.5-4.2c3.1-1.5,5.7-5.4,4.4-8.8
							c-1-2.8-4.3-3.8-8.7-2.6c-8.6,2.3-14,8.5-14.9,12c-0.2,0.9-0.2,1.6,0.1,2c-6.7,4.3-15.9,11-25.7,20c2-3.2,3.3-7.2,4-10.6
							c4.1-0.9,7.1-9.2,8.7-16.8c0.7-3.4-0.9-7.8-4.4-8.8c-2.9-0.8-5.6,1.2-7.3,5.4c-3.2,8.3-1.4,16.3,0.9,19.1
							c0.5,0.6,1.1,1,1.6,1.1c-1.1,5-3.1,10.3-6.5,13.4c0,0,0,0,0,0 M93.1,229.4c0,0.3,0,0.5,0.2,0.7c1.3,2.6,6,3.5,11.3,3.5
							c2.5,0,5.1-0.2,7.5-0.5c3.5-0.5,7.1-3.4,6.9-7c-0.1-3-2.9-4.9-7.5-5.1c-8.9-0.4-15.9,3.9-17.8,6.9c-0.2,0.3-0.4,0.6-0.4,0.9
							c-1.1,0.3-2.2,0.5-3.4,0.9 M86,256.8c3.3-1.1,6.3-4.7,5.4-8.2c-0.7-2.9-3.8-4.3-8.3-3.6 M90,211.6c-2.2-2.7-3.9-10.5-0.8-18.6
							c1.3-3.4,3.3-5.3,5.5-5.3c0.4,0,0.7,0.1,1.1,0.2c2.6,0.8,4.8,4.2,4,8.1c-1.4,6.9-4.3,15.2-8,16.3c0.1-0.2,0.1-0.5,0.1-0.7
							c1.1-5.3,1.2-9.9,1.2-9.9c0-0.1-0.1-0.3-0.3-0.3c-0.2,0-0.3,0.1-0.3,0.3c0,0.1-0.2,5-1.4,10.7C90.9,212.4,90.5,212.1,90,211.6
							z M83.1,245.5c4.2-0.6,7.1,0.6,7.7,3.2c0.6,2.6-1.3,6.3-5.1,7.5 M94.1,228.2c1.8-2.8,8.1-6.7,16.1-6.7c0.4,0,0.8,0,1.2,0
							c4.3,0.2,6.8,1.9,7,4.6c0.1,2.7-2.4,5.9-6.4,6.4c-7.3,1-16.4,0.8-18.2-2.7l0,0c-0.1-0.2-0.1-0.4-0.1-0.6
							c3.8-0.9,6.6-1.3,6.6-1.3c0.2,0,0.3-0.2,0.2-0.3c0-0.1-0.2-0.3-0.3-0.2c0,0-2.7,0.4-6.4,1.2C93.9,228.5,94,228.4,94.1,228.2z
							 M132.2,200.6c-6.4,3-14.8,5.6-17.9,3.2c5.9-3.8,9.6-5.7,9.7-5.8c0.1-0.1,0.2-0.2,0.1-0.4c-0.1-0.1-0.2-0.2-0.4-0.1
							c-0.1,0.1-3.9,2-9.9,5.9c-0.2-0.3-0.2-0.9,0-1.6c0.9-3.4,6.1-9.4,14.5-11.6c4.1-1.1,7.1-0.2,8,2.3
							C137.3,195,135.8,198.9,132.2,200.6z"/>
					</g>
					<g>
						<path class="st17" d="M31.6,361.6 M14.3,363c-0.5,6-0.3,10.7,0.7,13.8l0.5-0.2"/>
					</g>
					<g>
						<path class="st17" d="M2,370.4l0.5-0.2 M-42.4,368c4.5,2.2,8.7,3.4,12.4,3.4c2.6,0,5-0.5,7.3-1.6 M-23,369.3
							c-5.3,2.5-11.8,2-19.2-1.8"/>
					</g>
				</g>
			</g>
		</g>
		<g>
			<g>
				<defs>
					<rect id="SVGID_3_" x="186.3" y="220.6" width="164.7" height="133.2"/>
				</defs>
				<clipPath id="SVGID_4_">
					<use xlink:href="#SVGID_3_"  style="overflow:visible;"/>
				</clipPath>
				<g class="st21">
					<path class="st19" d="M197.9,270.2c-2.1,0.5-3,2.7-2.6,5.9c0.9,6.2,4.8,10.5,7.2,11.4c0.6,0.2,1.1,0.3,1.4,0.1
						c2.5,5,6.4,12.1,12,19.8c-2.1-1.7-4.9-3-7.3-3.8c-0.3-2.9-5.9-5.8-11.1-7.5c-2.3-0.8-5.5,0-6.5,2.4c0,0,0,0,0,0
						c-0.8,1.9,0.4,4,3.2,5.5c5.5,3,11.3,2.3,13.4,1c0.4-0.3,0.7-0.6,0.9-0.9c0,0,0-0.1,0.1-0.2c3.2,1.1,7,3,8.9,5.7l0,0
						c1.6,2.1,3.3,4.2,5.1,6.3c2.7,3.1,5.4,6.1,8.3,8.9c-1.9-1.1-4.7-2.1-8.3-3c-0.4-0.1-0.8-0.2-1.1-0.3c0,0,0,0,0-0.1
						c-0.4-3-6.4-5.2-11.8-6.4c-2.4-0.5-5.5,0.6-6.2,3c-0.6,2,0.8,4,3.8,5.2c5.8,2.4,11.5,1.2,13.5-0.4c0.4-0.3,0.6-0.6,0.7-0.9
						c0,0,0-0.1,0-0.1c0.4,0.1,0.7,0.2,1.1,0.3c5,1.2,8.5,2.7,10.2,4.4l0,0c3.4,3.2,6.9,6.1,10.6,8.9c0,0,0,0,0,0l0,0
						c2.4,1.8,4.8,3.4,7.3,5c-1.5-0.3-3.5-0.2-5.5-0.1c0,0,0,0,0-0.1c-1.2-2.7-7.5-3.4-13.1-3.1c-2.4,0.1-5.1,2-5.2,4.5
						c-0.1,2.1,1.8,3.6,5,4c6.2,0.8,11.4-1.9,12.9-3.9c0.2-0.2,0.3-0.4,0.4-0.6c0.1-0.2,0.1-0.4,0.1-0.5c2.7-0.2,5.5-0.2,6.7,0.5
						l0,0c0.5,0.3,0.9,0.6,1.4,0.9c4.9,2.9,10,5.4,15.3,7.5c0,0,0,0,0.1,0v0c3.3,1.3,6.6,2.4,10,3.4c-1.6,0.1-3.5,0.6-5.4,1.1
						c0,0,0-0.1,0-0.1c-1.7-2.4-8.1-1.7-13.4-0.3c-2.4,0.6-4.6,3-4.1,5.5c0.4,2.1,2.5,3.1,5.7,2.9c6.2-0.5,10.7-4.2,11.8-6.5
						c0,0,0-0.1,0.1-0.1c0.2-0.4,0.2-0.8,0.2-1c2.6-0.8,5.4-1.4,6.9-1v0c6.4,1.7,13,2.9,19.7,3.5l0-0.4c-11-1-21.4-3.4-31.3-7.3
						c-2.4-1.1-4.2-3.9-5.5-6.8c0.4-0.3,0.7-0.7,0.9-1.2c1.1-2.6,0.2-7.8-1.3-12.2c-0.8-2.3-3.3-4.5-5.7-3.9c-2.1,0.5-3,2.7-2.6,5.9
						c0.9,6.2,4.8,10.5,7.1,11.5c0.5,0.2,1,0.3,1.3,0.1c1.2,2.7,2.6,4.7,4,5.9c-4.6-1.9-9.1-4.1-13.5-6.7c-3.4-2-6.8-4.2-10-6.6
						c-3-2.5-4.8-6.8-5.9-10.5c0.1,0,0.1,0,0.2-0.1c0.5-0.3,0.9-0.9,1.3-1.6c1.1-2.6,0.7-7.5-0.2-11.8c-0.5-2.4-2.8-4.8-5.3-4.5
						c-2.1,0.3-3.3,2.3-3.2,5.5c0.2,6.3,3.6,11,5.8,12.1c0.4,0.2,0.8,0.3,1.1,0.3c0.9,3,2.3,6.4,4.3,8.9c-6.1-4.7-11.8-10-17.1-16
						l0,0c-2.7-3.2-3.8-9.3-4.3-13.7c0.2,0,0.4,0,0.5,0c0.9-0.4,1.7-1.3,2.2-2.6c1.1-2.6,1.5-6.6,1.4-10.3c0-2.5-1.8-5.2-4.3-5.4
						c-2.1-0.2-3.7,1.6-4.2,4.8c-1,6.2,1.4,11.4,3.4,13c0.2,0.2,0.4,0.3,0.6,0.4c0.1,0.8,0.2,1.6,0.3,2.5c0.6,4,1.5,7.1,2.7,9.4
						c0,0,0,0-0.1-0.1c-9.2-10.8-15.3-21.5-18.7-28.3c0.3-0.3,0.6-0.7,0.8-1.1c1.1-2.6,0.1-7.8-1.3-12.2
						C202.9,271.7,200.4,269.6,197.9,270.2z"/>
					<path class="st19" d="M317.5,224.2c1.9-0.8,4,0.4,5.5,3.2c3,5.5,2.3,11.3,1,13.4c-0.3,0.5-0.7,0.9-1.1,0.9c1,5.6,2,13.6,2,23.1
						c0.7-2.6,2.2-5.3,3.6-7.4c-1.5-2.5,1.3-8.1,4.5-12.6c1.4-2,4.5-3.2,6.6-1.9c0,0,0,0,0,0c1.8,1.1,2,3.5,0.6,6.3
						c-2.7,5.6-7.7,8.5-10.3,8.7c-0.5,0-0.9,0-1.2-0.2c0,0-0.1-0.1-0.1-0.1c-1.9,2.8-3.9,6.5-3.9,9.8l0,0c0,2.6-0.1,5.3-0.4,8.1
						c-0.3,4.1-0.8,8.1-1.5,12.1c0.9-2,2.6-4.5,4.9-7.3c0.3-0.3,0.5-0.6,0.8-0.9c0,0,0,0,0,0c-1.4-2.6,2.1-8,5.8-12.1
						c1.6-1.8,4.8-2.8,6.8-1.2c1.7,1.3,1.7,3.6,0,6.4c-3.3,5.3-8.6,7.7-11.1,7.6c-0.5,0-0.8-0.1-1.1-0.3c0,0-0.1,0-0.1-0.1
						c-0.2,0.3-0.5,0.6-0.7,0.8c-3.3,3.9-5.3,7.2-5.6,9.5l0,0c-0.9,4.6-2,9-3.3,13.4c0,0,0,0,0,0l0,0c-0.9,2.8-1.9,5.6-3,8.4
						c1-1.1,2.7-2.3,4.4-3.3c0,0,0,0,0,0c-0.7-2.9,4.1-7.2,8.7-10.2c2-1.3,5.3-1.4,6.9,0.6c1.3,1.7,0.7,4-1.6,6.2
						c-4.5,4.3-10.3,5.2-12.7,4.5c-0.3-0.1-0.5-0.2-0.6-0.3c-0.2-0.1-0.3-0.2-0.4-0.4c-2.3,1.5-4.6,3.1-5.1,4.4l0,0
						c-0.2,0.5-0.4,1-0.6,1.5c-2.3,5.2-4.9,10.3-8,15c0,0,0,0,0,0.1h0c-1.9,3-3.9,5.8-6.1,8.6c1.3-0.8,3.2-1.6,5-2.3
						c0,0,0-0.1,0-0.1c0-3,5.5-6.2,10.7-8.1c2.3-0.9,5.5-0.3,6.6,2c0.9,1.9-0.2,4-2.9,5.7c-5.4,3.2-11.1,2.9-13.4,1.7
						c0,0-0.1,0-0.1-0.1c-0.4-0.2-0.6-0.5-0.8-0.7c-2.6,0.9-5.2,2-6.2,3.2h0c-4.1,5.1-8.8,10-13.9,14.4l-0.2-0.3
						c8.3-7.2,15.3-15.4,21-24.3c1.3-2.3,1.1-5.6,0.5-8.7c-0.5,0-1-0.2-1.4-0.5c-2.4-1.5-4.7-6.2-6.1-10.6c-0.8-2.3,0-5.5,2.4-6.5
						c1.9-0.8,4,0.4,5.5,3.2c3,5.5,2.4,11.3,1,13.5c-0.3,0.5-0.6,0.8-1,0.9c0.6,2.9,0.7,5.3,0.2,7.1c2.6-4.3,4.9-8.7,6.9-13.4
						c1.6-3.6,3-7.4,4.2-11.2c1-3.7-0.1-8.3-1.4-11.9c-0.1,0-0.1,0-0.2,0c-0.6,0-1.3-0.2-2-0.6c-2.5-1.5-5-5.6-6.8-9.6
						c-1-2.2-0.6-5.5,1.6-6.7c1.8-1,4-0.1,5.9,2.6c3.5,5.2,3.6,11,2.5,13.3c-0.2,0.4-0.4,0.7-0.7,0.9c1,2.9,1.9,6.5,1.8,9.8
						c2.1-7.4,3.6-15,4.3-23l0,0c0.3-4.1-2.4-9.8-4.6-13.6c-0.1,0.1-0.3,0.2-0.5,0.3c-1,0.3-2.1-0.1-3.3-0.8
						c-2.4-1.5-5.1-4.5-7.2-7.5c-1.4-2-1.6-5.3,0.3-6.9c1.6-1.4,3.9-0.9,6.2,1.4c4.5,4.4,5.6,10.1,5,12.5c-0.1,0.3-0.2,0.5-0.3,0.7
						c0.4,0.7,0.8,1.4,1.2,2.2c1.9,3.6,3,6.7,3.4,9.2c0,0,0-0.1,0-0.1c1-14.2-0.3-26.3-1.6-33.9c-0.4-0.1-0.9-0.2-1.3-0.5
						c-2.4-1.5-4.7-6.2-6.1-10.6C314.4,228.4,315.2,225.2,317.5,224.2z"/>
					<g>
						<path class="st9" d="M291.5,348.7c0,0-10.5,16.3-23.8,1.8c-13.4-14.5-8.9-40.9-19.4-50.7c0,0,7.7,6.7,27,10.4
							C294.5,314,316.9,343.8,291.5,348.7z"/>
						<path class="st17" d="M303.1,338c0-10.8-14.6-25.4-27.8-28c-19-3.6-26.8-10.3-26.8-10.4l-0.3,0.3l-0.1,0.1l0,0l0,0
							c4.9,4.6,6.5,13.1,8.3,22c1.9,9.9,4,21,11.1,28.7c3.7,4,7.6,6.1,11.5,6.1c0.3,0,0.7,0,1,0c6.1-0.5,10.4-6,11.5-7.5
							c0.9,1.8,4.4,9.3,4.3,14l0.6,0c0.1-5-3.6-12.6-4.4-14.3C301.2,347,303.2,341.9,303.1,338z M291.4,348
							c-8.1-11.4-19.2-23.8-27.2-32.3c-4.7-5-8.9-9.3-11.7-12.1c0.3,0.3,0.7,0.6,1,0.9c2.6,2.3,5.5,4.8,8.7,6.1
							c8.2,3.1,13.8,10.1,19.2,16.8c0.9,1.1,1.8,2.2,2.7,3.4C286.3,333.3,291.6,344,291.4,348z M290.8,348.2
							c-10.4-3.5-23.3-11.4-26.5-22.6c-2.2-7.9-7.3-15.5-10.7-20c2.7,2.8,6.3,6.4,10.2,10.6C271.7,324.5,282.7,336.9,290.8,348.2z
							 M263.8,325.7c3.2,11.5,16.4,19.5,27,23.1c-1.2,0.5-3.9,1.4-7.4,1.2c-7.8-0.4-13.2-6.1-16.4-10.7c-6.6-9.7-8.5-17.4-10-23.6
							c-0.7-2.9-1.3-5.5-2.3-7.9C257.9,312.4,261.9,318.9,263.8,325.7z M291.8,346.2c-0.9-5-5.2-13.4-7.2-15.8
							c-0.9-1.1-1.8-2.2-2.7-3.3c-5.5-6.8-11.2-13.8-19.5-17c-3.1-1.2-6-3.7-8.5-6c0,0,0,0-0.1,0c4.5,2.7,8.9,4.9,12,6.1
							c7,2.9,16.9,9,22.4,15C293.4,330.9,293.1,338.8,291.8,346.2z M279.9,356.2c-4,0.4-8.1-1.6-12-5.9c-7-7.5-9-18.2-11-28.4
							c-1.3-6.6-2.5-13-5.1-17.8c0.1,0.2,0.3,0.4,0.5,0.6c2.1,3.1,3.1,6.8,4.1,11c1.5,6.3,3.4,14,10.1,23.8
							c3.3,4.8,8.8,10.5,16.8,11c0.3,0,0.6,0,1,0c2.9,0,5.2-0.7,6.4-1.2C289.2,351.3,285.3,355.8,279.9,356.2z M291.9,348.4
							c1.7-8.1,2.6-17.1-3.3-23.6c-5.8-6.4-15.8-12.3-22.6-15.1c-2.6-1.1-6.1-2.8-9.9-4.9c4.1,1.9,10.4,4.1,19.1,5.8
							c6.1,1.2,13,5.2,18.6,10.7c5.5,5.5,8.8,11.8,8.8,16.7C302.6,343.3,298.9,346.9,291.9,348.4z"/>
					</g>
					<g>
						<path class="st9" d="M322.6,346.2c0,0,22.2-3.4,13.2-24.4c-9-21-39.1-28.7-44.5-44.5c0,0,3.5,11.3-1.7,33.5
							C284.4,333,305.4,370.7,322.6,346.2z"/>
						<path class="st17" d="M336.6,337.7c2.4-4.3,2.2-9.7-0.5-16c-4.8-11.1-15.6-18.6-25.1-25.3c-8.7-6-16.9-11.8-19.4-19.2l0,0l0,0
							l-0.1,0l-0.4,0.1c0,0.1,3.4,11.5-1.7,33.3c-3.6,15.2,5,37.5,16.4,42.6c1.4,0.6,3,1.1,4.8,1.1c3.6,0,7.8-1.8,12.1-7.8
							c1.3,1.6,7.8,9.2,13.1,11.5l0.2-0.5c-5-2.1-11.4-9.5-12.8-11.2C325.1,346,333.1,344,336.6,337.7z M293,284.6
							c0.1,0.2,0.1,0.4,0.2,0.6c1.2,3.7,2.5,8,2.3,11.9c-0.5,10.3,4.2,19.6,8.8,28.6c0.7,1.5,1.5,3,2.3,4.5
							c1.6,3.3,8.8,12.1,13.6,15.2c-8.5-2-17.2-5.5-20.9-13.8c-3.8-8.6-5.6-22-5.3-30.8C294,296.8,293.8,290.9,293,284.6z
							 M293.7,285c-0.3-0.9-0.6-1.8-0.8-2.6c4.5,11.8,16.6,42,29.1,63.4c-4.3-1.5-13.3-12.3-15.1-15.9c-0.7-1.5-1.5-3-2.3-4.5
							c-4.5-8.9-9.2-18.2-8.7-28.3C296.2,293.1,294.9,288.8,293.7,285z M322.4,345.3c-11.6-19.8-22.8-47-27.9-60.3
							c3.1,5.7,8.9,15.1,16.4,21.4C321.4,315.1,323.6,332.6,322.4,345.3z M323,345.5c1.3-12.9-1-30.7-11.7-39.5
							c-6.4-5.3-11.5-12.9-14.8-18.5c2.1,2.3,4.6,4.3,7.5,6.5c5.9,4.5,13.2,10.2,20.3,21.8c3.4,5.6,6.8,14,3.6,22.4
							C326.4,342,324,344.5,323,345.5z M306,352.9c-5.2-2.3-10.3-8.8-13.5-17.3c-3.3-8.5-4.2-17.7-2.6-24.7
							c2.5-10.4,3-18.5,2.8-24.1c0.6,5.4,0.8,10.5,0.6,13.9c-0.2,8.6,1.3,22,5.4,31.1c4.1,9.3,14.1,12.6,23.5,14.6
							C317.2,353.2,311.6,355.4,306,352.9z M323.6,345.7c1.2-1.1,3.4-3.6,4.8-7.4c3.3-8.7-0.1-17.3-3.6-23
							c-7.2-11.7-14.5-17.4-20.4-21.9c-4-3.1-7.5-5.8-9.8-9.5c-0.2-0.4-0.4-0.8-0.6-1.2c3.8,5.1,10.1,9.5,16.7,14.1
							c10,6.9,20.2,14.1,24.9,25.1c2.6,6.2,2.8,11.4,0.5,15.5C333,343,326.1,345.1,323.6,345.7z"/>
					</g>
				</g>
			</g>
		</g>
		<g>
			<g>
				<defs>
					<rect id="SVGID_5_" x="118" width="212.6" height="94.2"/>
				</defs>
				<clipPath id="SVGID_6_">
					<use xlink:href="#SVGID_5_"  style="overflow:visible;"/>
				</clipPath>
				<g class="st22">
					<path class="st19" d="M193.9,70.2c0,2.4,2.1,4.1,5.8,4.5c7.1,0.8,13-2.4,14.7-4.8c0.4-0.6,0.6-1.1,0.5-1.6
						c6.3-1.4,15.3-3.8,25.4-7.8c-2.5,1.8-4.7,4.6-6.3,7c-3.3-0.5-8.1,4.9-11.4,10.3c-1.5,2.4-1.5,6.1,0.8,7.9c0,0,0,0,0,0
						c1.9,1.4,4.6,0.7,7-2.1c4.8-5.3,5.8-11.9,4.8-14.7c-0.2-0.6-0.4-1-0.8-1.2c-0.1,0-0.1-0.1-0.2-0.1c2.1-3.2,5.2-6.9,8.8-8.3l0,0
						c2.8-1.2,5.6-2.5,8.4-3.9c4.2-2.1,8.3-4.4,12.3-6.8c-1.8,1.9-3.6,4.7-5.6,8.4c-0.2,0.4-0.4,0.8-0.6,1.2c0,0,0,0-0.1,0
						c-3.4-0.3-7.6,5.6-10.4,11.4c-1.2,2.5-0.9,6.3,1.6,7.8c2.1,1.3,4.6,0.2,6.8-2.7c4.3-5.8,4.5-12.5,3.3-15.1
						c-0.2-0.5-0.5-0.8-0.8-1c0,0-0.1-0.1-0.1-0.1c0.2-0.4,0.4-0.8,0.6-1.1c2.8-5.2,5.4-8.7,7.7-10.1l0,0c4.5-2.9,8.8-6,12.8-9.3
						c0,0,0,0,0,0l0,0c2.6-2.2,5.2-4.4,7.6-6.8c-0.7,1.6-1.2,3.8-1.6,6.1c0,0,0,0-0.1,0c-3.4,0.5-5.9,7.4-7.1,13.7
						c-0.5,2.8,0.8,6.3,3.6,7.1c2.3,0.7,4.5-1,5.9-4.4c2.6-6.7,1.1-13.2-0.7-15.5c-0.2-0.2-0.4-0.4-0.6-0.6
						c-0.2-0.1-0.4-0.2-0.5-0.3c0.5-3.1,1.3-6.2,2.4-7.3l0,0c0.5-0.5,0.9-0.9,1.4-1.4c4.6-4.7,8.8-9.7,12.6-15c0,0,0-0.1,0.1-0.1h0
						c2.3-3.3,4.5-6.7,6.5-10.2c-0.3,1.8-0.3,4.1-0.2,6.3c0,0-0.1,0-0.1,0c-3.2,1.3-4.2,8.5-4.1,14.9c0.1,2.8,2.1,6,5,6.2
						c2.4,0.2,4.2-1.9,4.8-5.6c1.1-7.1-1.7-13.1-4-15c0,0-0.1-0.1-0.1-0.1c-0.4-0.3-0.8-0.5-1.1-0.5c-0.2-3.1-0.1-6.4,0.8-7.9h0
						c3.7-6.6,6.8-13.6,9.4-21l-0.4-0.1c-4.1,11.9-9.8,22.9-16.8,32.8c-1.9,2.4-5.5,3.6-9.1,4.2c-0.2-0.5-0.6-1-1.1-1.3
						c-2.6-2-8.6-2.4-13.9-2c-2.8,0.2-5.9,2.4-5.9,5.3c0,2.4,2.1,4.1,5.8,4.5c7.1,0.8,13-2.4,14.8-4.7c0.4-0.5,0.5-1,0.5-1.4
						c3.3-0.6,5.9-1.6,7.7-2.9c-3.4,4.6-7.2,9-11.2,13.1c-3.2,3.3-6.6,6.3-10.1,9.3c-3.5,2.6-8.9,3.5-13.3,3.7c0-0.1,0-0.1,0-0.2
						c-0.2-0.7-0.7-1.3-1.5-1.8c-2.6-2-8.1-2.9-13.2-3.1c-2.8-0.1-6.1,1.7-6.5,4.6c-0.3,2.4,1.7,4.3,5.3,5.1
						c7,1.5,13.2-0.9,15.2-3.1c0.4-0.4,0.6-0.8,0.6-1.1c3.5-0.2,7.8-0.7,11.2-2.3c-6.9,5.4-14.5,10.3-22.6,14.5l0,0
						c-4.3,2.1-11.4,1.7-16.5,1c0.1-0.2,0.1-0.4,0.1-0.6c-0.1-1.1-1-2.2-2.3-3.2c-2.6-1.9-7-3.5-11.1-4.5c-2.7-0.7-6.3,0.5-7.2,3.3
						c-0.8,2.3,0.8,4.5,4.2,6c6.6,2.9,13.1,1.6,15.5-0.1c0.3-0.2,0.5-0.4,0.6-0.6c0.9,0.1,1.9,0.2,2.8,0.3c4.6,0.4,8.4,0.3,11.3-0.4
						c0,0-0.1,0-0.1,0c-14.6,7.2-28.2,11-36.8,12.9c-0.2-0.4-0.6-0.8-1-1.2c-2.6-2-8.6-2.3-13.9-1.9
						C196.9,65.1,193.9,67.3,193.9,70.2z"/>
					<path class="st19" d="M131.3,72.1c-1.9-0.4-2.9-2.3-2.6-5.3c0.6-5.7,4-9.8,6.1-10.7c0.5-0.2,1-0.3,1.3-0.1
						c2.1-4.7,5.4-11.3,10.2-18.6c-1.9,1.7-4.3,2.9-6.5,3.8c-0.1,2.7-5.1,5.5-9.9,7.2c-2.1,0.8-5,0.2-6-1.9c0,0,0,0,0,0
						c-0.8-1.7,0.2-3.7,2.8-5.2c4.9-2.9,10.2-2.5,12.3-1.4c0.4,0.2,0.7,0.5,0.8,0.8c0,0,0,0.1,0.1,0.1c2.9-1.2,6.3-3,7.9-5.5l0,0
						c1.4-2,2.8-4,4.4-6c2.3-3,4.8-5.8,7.3-8.5c-1.7,1.1-4.2,2.1-7.4,3c-0.4,0.1-0.7,0.2-1,0.3c0,0,0,0,0,0c-0.3,2.7-5.6,5-10.6,6.3
						c-2.2,0.6-5-0.3-5.8-2.5c-0.6-1.8,0.6-3.6,3.3-4.9c5.2-2.4,10.4-1.5,12.4-0.1c0.3,0.2,0.6,0.5,0.7,0.8c0,0,0,0.1,0,0.1
						c0.3-0.1,0.6-0.2,1-0.3c4.5-1.3,7.7-2.8,9.2-4.4l0,0c3-3,6.1-5.9,9.4-8.5c0,0,0,0,0,0l0,0c2.1-1.7,4.3-3.3,6.5-4.8
						c-1.3,0.3-3.2,0.3-5,0.3c0,0,0,0,0,0.1c-1,2.5-6.8,3.4-11.8,3.3c-2.3,0-4.8-1.6-5-3.9c-0.1-1.9,1.5-3.4,4.4-3.9
						c5.6-1,10.5,1.3,12,3.1c0.1,0.2,0.3,0.4,0.4,0.6c0.1,0.2,0.1,0.3,0.1,0.5c2.5,0.1,5.1,0,6.1-0.7l0,0c0.4-0.3,0.9-0.6,1.3-0.8
						c4.4-2.8,9-5.3,13.7-7.4c0,0,0.1,0,0.1,0v0c2.9-1.3,5.9-2.4,9-3.5c-1.4,0-3.2-0.4-5-0.8c0,0,0,0.1,0,0.1
						c-1.5,2.3-7.3,1.9-12.3,0.8c-2.2-0.5-4.3-2.6-4-4.9c0.3-1.9,2.2-3,5.1-2.8c5.7,0.3,10,3.5,11,5.5c0,0,0,0.1,0.1,0.1
						c0.2,0.4,0.2,0.7,0.2,0.9c2.4,0.6,5,1.1,6.3,0.7v0c5.8-1.8,11.7-3.1,17.9-3.9l0,0.3c-10,1.3-19.5,3.9-28.4,7.8
						c-2.1,1.1-3.7,3.7-4.8,6.4c0.4,0.3,0.6,0.6,0.9,1.1c1.1,2.4,0.4,7.1-0.7,11.2c-0.6,2.2-2.8,4.2-5.1,3.8
						c-1.9-0.4-2.9-2.3-2.6-5.3c0.6-5.7,3.9-9.8,6.1-10.8c0.5-0.2,0.9-0.3,1.2-0.2c1-2.5,2.2-4.4,3.5-5.5c-4.2,1.9-8.2,4.1-12.1,6.6
						c-3.1,2-6,4.1-8.9,6.4c-2.6,2.4-4.1,6.4-5,9.8c0.1,0,0.1,0,0.1,0.1c0.5,0.3,0.9,0.8,1.2,1.4c1.1,2.4,0.9,6.8,0.3,10.8
						c-0.4,2.2-2.3,4.5-4.7,4.3c-1.9-0.2-3.1-2-3.1-5c-0.1-5.7,2.9-10.2,4.9-11.3c0.4-0.2,0.7-0.3,1-0.3c0.7-2.7,1.8-5.9,3.6-8.3
						c-5.4,4.5-10.4,9.6-15,15.3l0,0c-2.3,3-3.1,8.7-3.4,12.7c0.2,0,0.3,0,0.5,0c0.9,0.3,1.6,1.1,2.1,2.3c1.1,2.3,1.6,6,1.7,9.4
						c0.1,2.3-1.4,4.8-3.8,5.1c-1.9,0.2-3.4-1.4-4-4.3c-1.2-5.6,0.9-10.5,2.6-12.1c0.2-0.2,0.4-0.3,0.6-0.4c0.1-0.7,0.1-1.5,0.2-2.3
						c0.4-3.7,1.1-6.6,2.1-8.7c0,0,0,0-0.1,0.1c-8,10.3-13.2,20.2-16,26.6c0.3,0.3,0.6,0.6,0.7,1c1.1,2.4,0.4,7.1-0.8,11.2
						C135.8,70.5,133.6,72.5,131.3,72.1z"/>
					<g>
						<g>
							<path class="st15" d="M192,27.6c-0.8,4.5-8.6,8.9-23.4,3.8s-20.4-15.8-27.8-17.2c0,0,18.5,1.4,26.8-0.9
								C176.1,11,194.1,15.6,192,27.6z"/>
							<path class="st15" d="M140.9,14.2c0,0,30.6,11.3,51.1,13.4"/>
							<path class="st15" d="M161.4,25.1c0,0,7.2-2,13-0.7"/>
							<path class="st15" d="M176,19.9c0,0,4.3,6,9,6.8"/>
						</g>
						<g>
							<path class="st15" d="M228.8,16c-2.6,3.7-11.7,4.1-22.6-6.9c-10.9-11.1-11.3-23.2-17.3-27.7c0,0,15.9,9.4,24.5,11
								C221.9-5.9,235.9,6.2,228.8,16z"/>
							<path class="st15" d="M188.9-18.6c0,0,22.4,23.7,39.9,34.6"/>
							<path class="st15" d="M202.4,0.2c0,0,7.4,1.4,11.9,5.1"/>
							<path class="st15" d="M217.8,2c0,0,1.2,7.3,5.1,10"/>
						</g>
						<g>
							<path class="st15" d="M278.4,5c-2,4.1-10.8,6-23.5-3c-12.6-9.1-15-21-21.6-24.4c0,0,17.3,6.6,26,6.8
								C267.9-15.5,283.7-5.9,278.4,5z"/>
							<path class="st15" d="M233.3-22.5c0,0,26.1,19.6,45.1,27.5"/>
							<path class="st15" d="M265.2-7.1c0,0,2.4,7,6.7,9.1"/>
						</g>
						<g>
							<path class="st15" d="M209.3,41.9c3.1,3.3,1.8,12.3-11.1,20.9s-24.9,6.7-30.5,11.7c0,0,12.3-13.8,15.5-21.9
								C186.4,44.5,201,33.1,209.3,41.9z"/>
							<path class="st15" d="M167.7,74.5c0,0,27.6-17.5,41.6-32.6"/>
							<path class="st15" d="M188.7,64.8c0,0,2.8-7,7.3-10.8"/>
							<path class="st15" d="M193.4,50c0,0,7.4,0.2,10.8-3"/>
						</g>
						<g>
							<path class="st15" d="M264.4,37.6c3.7,2.6,4.2,11.7-6.8,22.7c-11,11-23.1,11.4-27.6,17.4c0,0,9.3-16,10.9-24.5
								C242.5,44.7,254.6,30.5,264.4,37.6z"/>
							<path class="st15" d="M230.1,77.7c0,0,23.6-22.6,34.4-40.1"/>
							<path class="st15" d="M248.8,64.1c0,0,1.4-7.4,5-12"/>
							<path class="st15" d="M250.4,48.6c0,0,7.3-1.3,10-5.1"/>
						</g>
						<path class="st17" d="M327.9-8.4c-0.1-0.1-0.3-0.1-0.4,0c-7.1,7.1-15.6,13.3-25.3,18.5c-7.9,3.5-21.3-4.2-23.4-5.4
							c1.4-3.2,1.1-6.6-0.9-9.9c-3.8-6.2-12.9-10.6-18.8-10.7c-8.5-0.2-25.7-6.7-25.9-6.8c0,0,0,0,0,0c0,0,0,0-0.1,0s0,0-0.1,0
							s0,0-0.1,0s0,0-0.1,0c0,0,0,0,0,0c0,0,0,0,0,0c0,0,0,0,0,0c0,0,0,0,0,0c0,0,0,0,0,0c0,0,0,0,0,0c0,0,0,0,0,0c0,0,0,0,0,0
							c0,0,0,0,0,0c0,0,0,0,0,0c0,0,0,0,0,0c0,0,0,0,0,0c0,0,0,0,0,0c0.1,0,0.9,0.7,2.5,1.8c1.8,1.7,3.3,4,5.1,6.8
							c3.1,4.8,7,10.8,14.1,15.8c5.9,4.2,11.7,6.5,16.4,6.5c1,0,2.1-0.1,3-0.4c2.1-0.5,3.7-1.7,4.5-3.2c1.1,0.7,4.6,2.7,8.9,4.3
							c3.8,1.4,7,2.1,9.8,2.1c0.8,0,1.5-0.1,2.3-0.2c-4.2,2.1-8.6,4-13.3,5.8c-1.7,0.6-3.4,1.2-5.1,1.8l0,0h0
							c-8.4,2.8-17.5,5-27.1,6.6c0,0,0,0,0,0c-0.1,0-0.2,0-0.2,0c-0.4,0.1-0.7,0.1-1.1,0.2c-11.2,1.4-21.8-7.8-23.8-9.7
							c2.1-3,2.5-6.6,1-10.2c-2.7-6.7-11-12.6-16.7-13.7c-8.4-1.6-24.2-10.9-24.4-11c0,0,0,0,0,0c0,0,0,0-0.1,0c0,0,0,0-0.1,0
							s0,0-0.1,0s0,0-0.1,0c0,0,0,0,0,0c0,0,0,0-0.1,0c0,0,0,0,0,0c0,0,0,0,0,0c0,0,0,0,0,0s0,0,0,0c0,0,0,0,0,0c0,0,0,0,0,0
							c0,0,0,0,0,0c0,0,0,0,0,0c0,0,0,0,0,0c0,0,0,0,0,0c0,0,0,0,0,0c0,0,0.8,0.9,2.1,2.2c1.4,2,2.6,4.5,3.9,7.6
							C197-3.4,199.9,3.2,206,9.3c5.9,6,12.1,9.3,17.2,9.3c0.3,0,0.6,0,0.9,0c2-0.2,3.7-0.9,4.7-2.1c1.9,1.7,10.3,9,20,9.9
							c-2.2,0.3-4.4,0.6-6.7,0.8c-25.9,2.8-47,0.5-49.7,0.2c0.5-3.6-0.7-6.9-3.6-9.5c-5.4-4.8-15.4-6.4-21.1-4.9
							c-8.2,2.3-26.5,0.9-26.7,0.9c0,0,0,0,0,0c0,0,0,0,0,0c0,0,0,0-0.1,0c0,0,0,0,0,0c0,0,0,0-0.1,0c0,0,0,0,0,0c0,0,0,0,0,0.1
							c0,0,0,0,0,0s0,0,0,0c0,0,0,0,0,0c0,0,0,0,0,0c0,0,0,0,0,0.1s0,0,0,0.1c0,0,0,0,0,0c0,0,0,0,0,0.1c0,0,0,0,0,0c0,0,0,0,0.1,0
							c0,0,0,0,0,0c0,0,1.1,0.4,2.9,1c2.2,1.1,4.3,2.9,6.8,5c4.4,3.7,9.8,8.3,18,11.1c4.4,1.5,8.5,2.3,12.1,2.3
							c3.3,0,6.1-0.6,8.3-1.9c1.8-1.1,3-2.5,3.3-4.1c1.6,0.2,10.8,1.2,23.9,1.2c4.7,0,9.9-0.1,15.5-0.5c-10.8,3-20.9,11.3-22.6,12.7
							c-2.5-2.4-5.8-3.3-9.5-2.6c-7.1,1.3-14.5,8.3-16.6,13.8c-3.1,7.9-15.3,21.7-15.5,21.8l0,0c0,0,0,0,0,0.1c0,0,0,0,0,0.1
							c0,0,0,0,0,0.1c0,0,0,0,0,0.1c0,0,0,0,0,0.1c0,0,0,0,0,0.1c0,0,0,0,0,0c0,0,0,0,0,0c0,0,0,0,0,0c0,0,0,0,0,0s0,0,0,0
							c0,0,0.1,0,0.1,0l0,0c0,0,0.1,0,0.1,0c0,0,0,0,0,0c0,0,0,0,0,0c0.1,0,1-0.6,2.6-1.7c2.2-1.1,4.9-1.7,8.2-2.4
							c5.6-1.3,12.5-2.8,19.7-7.6c7.4-4.9,12-10.8,12.6-16c0.3-2.2-0.3-4.1-1.4-5.3l0,0c2-1.7,14.6-12,26.8-13.4c0,0,0,0,0,0
							c1.9-0.2,3.9-0.3,5.8-0.5c3.8-0.4,7.4-0.9,11-1.5c0.3,0,0.5-0.1,0.8-0.1c8.5-1.4,16.5-3.3,24.1-5.6
							c-7.6,4.7-13.1,14.5-14.1,16.3c-2.9-1.8-6.2-2-9.6-0.6c-6.7,2.7-12.5,11-13.6,16.8c-1.5,8.4-10.8,24.3-10.9,24.4c0,0,0,0,0,0
							c0,0,0,0,0,0.1c0,0,0,0,0,0.1c0,0,0,0,0,0.1c0,0,0,0,0,0.1c0,0,0,0,0,0c0,0,0,0,0,0.1c0,0,0,0,0,0c0,0,0,0,0,0c0,0,0,0,0,0
							c0,0,0,0,0,0s0,0,0,0c0,0,0.1,0,0.1,0l0,0l0,0c0,0,0.1,0,0.1,0c0,0,0,0,0,0c0,0,0,0,0.1,0c0,0,0.8-0.8,2.2-2.2
							c1.9-1.5,4.5-2.6,7.5-3.9c5.2-2.3,11.8-5.2,17.9-11.3c6.3-6.3,9.6-12.9,9.2-18.1c-0.2-2.2-1.1-4-2.5-5c-0.1,0-0.1-0.1-0.2-0.2
							c1-1.9,7.9-14.3,17.1-17.8c1.7-0.6,3.4-1.2,5.1-1.8c5.6-2.1,10.9-4.5,15.9-7.1c0.3-0.1,0.6-0.3,0.9-0.4c0,0,0,0,0,0
							c9.4-5.1,17.6-11.1,24.5-18.1C328-8.2,328-8.3,327.9-8.4z M259.2-15.4c5.7,0.1,14.6,4.4,18.3,10.4c1.9,3.1,2.2,6.3,0.8,9.4
							c0,0-0.1,0.1-0.1,0.1c0,0,0,0,0,0.1c-2-0.8-4.1-1.8-6.3-2.9c-4-2.1-6.4-8.8-6.4-8.9c0-0.2-0.2-0.2-0.4-0.2
							C265-7.3,264.9-7.1,265-7c0.1,0.2,1.6,4.5,4.3,7.3c-13.4-7.1-27.7-17.2-33.3-21.3c-0.2-0.2-0.4-0.4-0.6-0.5
							C240.2-19.7,252.4-15.5,259.2-15.4z M274,7.8c-1,0.2-1.9,0.3-2.9,0.3c-6.3,0-13.1-4.3-16-6.4c-6.9-5-10.8-10.9-13.9-15.7
							c-1.2-1.8-2.3-3.5-3.5-5c4.7,3.4,12.6,8.8,21.1,14c-4.4-1.4-9-1.5-9.1-1.5c-0.2,0-0.3,0.1-0.3,0.3s0.1,0.3,0.3,0.3
							c0.1,0,7.5,0.2,12.5,3c0,0,0,0,0,0c3.1,1.8,6.3,3.6,9.4,5.1c0,0,0.1,0,0.1,0.1h0c2.1,1.1,4.2,2,6.2,2.9
							C277.3,6.4,275.9,7.3,274,7.8z M213.3-7.3c5.6,1.1,13.7,6.8,16.3,13.3c1.4,3.5,1.1,6.7-0.9,9.6c-1.9-1.2-3.8-2.5-5.8-3.9
							c-3.6-2.7-4.9-9.7-4.9-9.8c0-0.1-0.2-0.3-0.3-0.2c-0.1,0-0.3,0.2-0.2,0.3c0,0.2,0.8,4.7,3,7.9c-12.1-9.2-24.5-21.5-29.3-26.5
							c-0.2-0.2-0.3-0.4-0.5-0.6C195.3-14.7,206.6-8.5,213.3-7.3z M224,18c-7.2,0.6-14.7-6.2-17.6-9.1c-6-6.1-8.9-12.6-11.1-17.8
							c-0.9-2-1.7-3.9-2.6-5.5c4.1,4.1,10.9,10.8,18.5,17.3c-4.1-2.1-8.6-3-8.7-3c-0.1,0-0.3,0.1-0.3,0.2s0.1,0.3,0.2,0.3
							c0.1,0,7.3,1.4,11.8,5.1c0,0,0,0,0,0c2.8,2.3,5.6,4.6,8.4,6.6c0,0,0.1,0.1,0.1,0.1c0,0,0,0,0,0c1.9,1.4,3.8,2.7,5.6,3.8
							c0,0,0,0.1,0.1,0.1C227.4,17.2,225.9,17.9,224,18z M167.8,13.6c5.5-1.5,15.3,0,20.5,4.7c2.8,2.5,3.9,5.5,3.4,9
							c-2.2-0.2-4.5-0.6-6.9-1c-4.4-0.8-8.7-6.6-8.7-6.6c-0.1-0.1-0.3-0.1-0.4-0.1c-0.1,0.1-0.1,0.3-0.1,0.4
							c0.1,0.2,2.8,3.8,6.2,5.8c-8.1-1.6-16.6-3.9-23.1-5.9c-6.4-1.9-11.9-3.8-15-4.9c-0.2-0.1-0.5-0.2-0.7-0.4
							C148.4,14.9,161.3,15.4,167.8,13.6z M188.6,31.5c-4.4,2.6-11.6,2.5-19.9-0.4c-8.1-2.8-13.5-7.3-17.8-11
							c-1.7-1.4-3.2-2.7-4.8-3.8c3.2,1.1,7.6,2.5,12.6,4c3.4,1,7.4,2.2,11.6,3.3c-4.6-0.1-9,1.1-9.1,1.1c-0.1,0-0.2,0.2-0.2,0.3
							c0,0.1,0.1,0.2,0.3,0.2c0,0,0.1,0,0.1,0c0.1,0,7.2-2,12.8-0.7c0,0,0,0,0,0c3.5,0.8,7.1,1.6,10.5,2.2c0,0,0.1,0,0.1,0
							c0,0,0,0,0,0c2.3,0.4,4.6,0.7,6.8,1C191.4,29.3,190.3,30.6,188.6,31.5z M183.5,52.7c2.1-5.3,9.3-12.1,16.2-13.5
							c0.8-0.2,1.6-0.2,2.3-0.2c2.6,0,4.9,0.9,6.8,2.8c0,0,0,0.1,0.1,0.1c0,0,0,0,0.1,0c-1.5,1.6-3.2,3.2-4.9,4.9
							c-3.4,3-10.5,2.9-10.5,2.9c-0.1,0-0.3,0.1-0.3,0.3c0,0.2,0.1,0.3,0.3,0.3c0,0,0.1,0,0.3,0c1.1,0,4.9-0.1,8.1-1.4
							c-11.4,10.1-25.9,20-31.7,23.8c-0.2,0.1-0.5,0.2-0.7,0.3C172.8,69,180.9,59,183.5,52.7z M210.4,47
							c-0.8,7.2-8.9,13.3-12.3,15.6c-7.1,4.8-14,6.3-19.6,7.5c-2.1,0.5-4.1,0.9-5.9,1.5c4.8-3.2,12.7-8.7,20.5-14.8
							c-2.9,3.7-4.6,7.9-4.6,7.9c-0.1,0.1,0,0.3,0.2,0.4c0,0,0.1,0,0.1,0c0.1,0,0.2-0.1,0.3-0.2c0-0.1,2.8-6.9,7.2-10.7c0,0,0,0,0,0
							c2.8-2.3,5.5-4.6,8.1-7c0,0,0.1-0.1,0.1-0.1l0,0c1.7-1.6,3.4-3.2,4.9-4.8C210.2,43.5,210.6,45.1,210.4,47z M241.2,53.2
							c1-5.6,6.7-13.7,13.2-16.4c1.4-0.6,2.9-0.9,4.2-0.9c1.8,0,3.5,0.5,5.1,1.5c0,0,0.1,0.1,0.1,0.1c0,0,0.1,0,0.1,0
							c0,0,0.1,0,0.1,0.1c-1.2,1.9-2.5,3.8-3.9,5.8c-2.7,3.6-9.7,4.9-9.8,4.9c-0.1,0-0.3,0.2-0.2,0.3c0,0.1,0.1,0.2,0.3,0.2
							c0,0,0,0,0.1,0c0.2,0,4.6-0.8,7.9-3C249.2,58,237,70.5,232.1,75.4c-0.2,0.2-0.4,0.3-0.6,0.5C234,71.3,240,59.9,241.2,53.2z
							 M266.5,42.4c0.6,7.2-6.1,14.8-9,17.7c-6,6-12.5,8.9-17.7,11.2c-2,0.9-3.9,1.7-5.5,2.6c4.1-4.1,10.7-11,17.2-18.6
							c-2.1,4.2-2.9,8.6-2.9,8.7c0,0.2,0.1,0.3,0.2,0.3c0,0,0,0,0.1,0c0.1,0,0.3-0.1,0.3-0.2c0-0.1,1.4-7.3,5-11.9c0,0,0,0,0,0
							c2.3-2.8,4.5-5.7,6.6-8.5c0,0,0.1-0.1,0.1-0.1c0,0,0,0,0,0c1.4-1.9,2.7-3.8,3.8-5.7C265.6,38.9,266.3,40.5,266.5,42.4z"/>
					</g>
				</g>
			</g>
		</g>
	</g>
</g>
</svg>
